<svg xmlns="http://www.w3.org/2000/svg" width="1200" height="790" viewBox="0 0 1200 790"><rect width="1200" height="790" fill="#10283d"/><style>text{font-family:Arial,sans-serif;fill:#e0edf4;font-size:18px}.small{font-size:15px;fill:#b5cbd9}.heading{font-size:23px}.title{font-size:32px;font-weight:bold}.wall{stroke:#d6e7f1;stroke-width:4;fill:none}.window{stroke:#73d5ee;stroke-width:4;fill:none}.detail{stroke:#7895a8;stroke-width:1.5;fill:none}.ghost{stroke:#7895a8;stroke-width:1.5;stroke-dasharray:7 5;fill:none}.route{stroke:#b5c59b;stroke-width:2;fill:none}</style>
<text x="40" y="48" class="title" text-anchor="start">ONE HALL VIEW, FOUR DESTINATIONS</text>
<text x="40" y="80" class="small" text-anchor="start">REVISION 3 · Planning view faces right across the blueprint (+X) · Camera left = rear hall; camera right = den</text>
<path d="M244.0 174.0L244.0 442.0" class="wall"/>
<path d="M364.0 174.0L364.0 194.0" class="wall"/>
<path d="M364.0 194.0L820 194.0" class="wall"/>
<path d="M364.0 314.0L820 314.0" class="wall"/>
<path d="M820 194.0L820 314.0" class="wall"/>
<path d="M588.0 174.0L588.0 194.0" class="wall"/>
<path d="M588.0 314.0L588.0 442.0" class="wall"/>
<path d="M660 194.0L732.0 194.0" stroke="#10283d" stroke-width="7"/>
<path d="M660 194.0L660 146.0" class="route"/>
<path d="M660 314.0L740 314.0" stroke="#10283d" stroke-width="7"/>
<path d="M660 314.0L660 266.0000000000001" class="route"/>
<path d="M820 214.0L820 294.0" class="window"/>
<path d="M828.0 214.0L828.0 294.0" class="window"/>
<rect x="556.0" y="214.0" width="100.0" height="80.00000000000007" class="ghost" style="fill:none"/>
<text x="606.0" y="243.60000000000002" class="small" text-anchor="middle">ATTIC</text>
<text x="606.0" y="266.0" class="small" text-anchor="middle">ceiling hatch</text>
<text x="696.0" y="130.0" class="" text-anchor="middle">MUDROOM → WORKBENCH</text>
<text x="700.0" y="354.0" class="" text-anchor="middle">STAIRS → BASEMENT</text>
<text x="304.0" y="170.0" class="small" text-anchor="middle">FUTURE: LOOK LEFT</text>
<text x="364.0" y="414.0" class="small" text-anchor="middle">GO RIGHT → DEN</text>
<text x="508.0" y="430.0" class="small" text-anchor="middle">Through entry</text>
<path d="M384.0 254.0L696.0 194.0" class="ghost"/>
<path d="M384.0 254.0L700.0 314.0" class="ghost"/>
<rect x="372.0" y="242.0" width="23.999999999999986" height="23.999999999999986" class="route" style="fill:none"/>
<path d="M396.0 254.0L476.0 254.0" class="route"/>
<path d="M476.0 254.0L452.0 242.0" class="route"/>
<path d="M476.0 254.0L452.0 266.0" class="route"/>
<text x="412.0" y="292.4" class="small" text-anchor="middle">CAMERA</text>
<text x="828.0" y="350.0" class="small" text-anchor="middle">Window</text>
<path d="M304.0 230.0L304.0 194.0" class="route"/>
<path d="M304.0 194.0L292.0 208.4000000000001" class="route"/>
<path d="M304.0 194.0L316.0 208.4000000000001" class="route"/>
<path d="M304.0 310.0L304.0 374.0" class="route"/>
<path d="M304.0 374.0L292.0 359.5999999999999" class="route"/>
<path d="M304.0 374.0L316.0 359.5999999999999" class="route"/>
<text x="45" y="470" class="heading" text-anchor="start">INITIAL NAVIGATION</text>
<text x="45" y="510" class="" text-anchor="start">Mudroom door → travel through mudroom → workbench view</text>
<text x="45" y="543" class="" text-anchor="start">Stair door → descend U-shaped stairs → basement view</text>
<text x="45" y="576" class="" text-anchor="start">Ceiling hatch / pull cord → ladder → attic view</text>
<text x="45" y="609" class="" text-anchor="start">Right edge control → turn toward front entry → den</text>
<text x="45" y="666" class="heading" text-anchor="start">LATER EXPANSION</text>
<text x="45" y="703" class="" text-anchor="start">Left edge control → look up the rear hall → kitchen, bath and bedrooms</text>
<text x="45" y="752" class="small" text-anchor="start">Dashed rays show unobstructed plan sightlines, not a tested final camera composition. Runtime views and controls are unchanged.</text>
</svg>